<?xml version="1.0" encoding="utf-8"?>
<!-- Generator: Adobe Illustrator 22.0.1, SVG Export Plug-In . SVG Version: 6.00 Build 0)  -->
<svg version="1.1" id="Layer_1" xmlns="http://www.w3.org/2000/svg" xmlns:xlink="http://www.w3.org/1999/xlink" x="0px" y="0px"
	 viewBox="0 0 100 100" enable-background="new 0 0 100 100" xml:space="preserve">
<g>
	<path fill="#CF9A31" d="M5.2,85.9c-0.6,0-1.2-0.2-1.8-0.6c-0.8-0.6-1.2-1.7-1-2.7l13.1-68.5c0.2-1,0.8-1.7,1.8-2.1
		c0.9-0.3,1.9-0.2,2.7,0.4l43.8,33.8c1.2,0.9,1.4,2.7,0.5,3.9c-0.9,1.2-2.7,1.4-3.9,0.5l-40.2-31L8.9,78.5l6.4-2.7
		c1.4-0.6,3.1,0.1,3.7,1.5c0.6,1.4-0.1,3.1-1.5,3.7L6.3,85.6C5.9,85.8,5.6,85.9,5.2,85.9z"/>
</g>
<g>
	<path fill="#CF9A31" d="M41.6,72.2c-1.1,0-2.1-0.6-2.6-1.7c-0.6-1.4,0.1-3.1,1.5-3.6l46.9-19.4L42,8.3l-0.8,6.9
		c-0.2,1.5-1.6,2.6-3.1,2.4c-1.5-0.2-2.6-1.6-2.4-3.1l1.5-12.1c0.1-1,0.8-1.9,1.8-2.3c1-0.4,2-0.2,2.8,0.5l52.8,45.5
		c0.7,0.6,1.1,1.6,0.9,2.6s-0.8,1.8-1.7,2.1L42.7,72C42.3,72.1,41.9,72.2,41.6,72.2z"/>
</g>
<g>
	<path fill="#CF9A31" d="M23.4,100c-0.6,0-1.3-0.2-1.8-0.6c-0.8-0.6-1.1-1.6-1-2.6l8.4-55c0.2-1.5,1.7-2.6,3.2-2.3
		c1.5,0.2,2.6,1.7,2.3,3.2L26.9,93l62.5-21.8l-6-5.3c-1.2-1-1.3-2.8-0.2-3.9c1-1.2,2.8-1.3,3.9-0.2l9.5,8.5c0.7,0.7,1.1,1.7,0.9,2.6
		c-0.2,1-0.9,1.8-1.8,2.1L24.4,99.8C24.1,99.9,23.7,100,23.4,100z"/>
</g>
</svg>
